<svg viewBox="0 0 10 10" fill="none" xmlns="http://www.w3.org/2000/svg">
    <g fill="white">
        <path
            d="M5 2.50204C3.61939 2.50204 2.5 3.62143 2.5 5.00204C2.5 6.38265 3.61939 7.50204 5 7.50204C6.38061 7.50204 7.5 6.38265 7.5 5.00204C7.5 3.62143 6.38061 2.50204 5 2.50204ZM5 7.16939C3.8051 7.16939 2.83367 6.19796 2.83367 5.00306C2.83367 3.80816 3.80612 2.83571 5 2.83571C6.1949 2.83571 7.16632 3.80816 7.16632 5.00306C7.16632 6.19694 6.1949 7.16939 5 7.16939Z" />
        <path d="M4.83469 0H5.16837V2.00204H4.83469V0Z" />
        <path d="M4.83469 8.00204H5.16837V10H4.83469V8.00204Z" />
        <path d="M0 4.83367H2V5.16735H0V4.83367Z" />
        <path d="M8 4.83367H10V5.16735H8V4.83367Z" />
        <path d="M8.41837 1.33674L8.65408 1.57245L7.2602 2.96531L7.02449 2.7296L8.41837 1.33674Z" />
        <path d="M1.58368 8.64286L1.34796 8.40714L2.74184 7.01327L2.97755 7.24898L1.58368 8.64286Z" />
        <path d="M1.58368 1.33674L2.97755 2.73062L2.74184 2.96633L1.34796 1.57143L1.58368 1.33674Z" />
        <path d="M8.41939 8.64286L7.02551 7.25L7.26123 7.01428L8.6551 8.40816L8.41939 8.64286Z" />
    </g>

</svg>
