<svg viewBox="0 0 24 24" fill="none" xmlns="http://www.w3.org/2000/svg">
    <path
        d="M12.336 3.01c4.75 0 8.63 3.44 8.63 7.73 0 2.8-2.28 5.07-5.07 5.07h-1.58a.7.7 0 0 0-.53 1.17 1.96 1.96 0 0 1-1.45 3.27 8.63 8.63 0 0 1 0-17.25v.01zm0 1.25a7.38 7.38 0 0 0 0 14.75.7.7 0 0 0 .52-1.2 1.96 1.96 0 0 1 1.46-3.25h1.58c2.1 0 3.81-1.71 3.81-3.82 0-3.56-3.28-6.48-7.37-6.48zm-4.67 8.04a1.335 1.335 0 1 1 0-2.67 1.335 1.335 0 0 1 0 2.67zm3-3a1.335 1.335 0 1 1 0-2.67 1.335 1.335 0 0 1 0 2.67zm3.9-.23a1.33 1.33 0 1 1-.01-2.66 1.33 1.33 0 0 1 0 2.66h.01zm2.1 3.23a1.335 1.335 0 1 1 0-2.67 1.335 1.335 0 0 1 0 2.67z"
        fill="currentColor"></path>
</svg>
