<svg width="40" height="50" viewBox="0 0 40 50" fill="#fff" xmlns="http://www.w3.org/2000/svg">
    <path fill-rule="evenodd" clip-rule="evenodd"
        d="M21.3146 0.531598L20 1.16279L18.6854 0.531598C18.9738 0.200161 19.4688 -1.38615e-07 20 0C20.5312 6.93078e-08 21.0262 0.200162 21.3146 0.531598ZM20 3.36735C19.8864 3.50648 19.7666 3.65403 19.6408 3.80968C18.5978 5.10074 17.1519 6.94718 15.5451 9.16332C12.3255 13.6039 8.48583 19.4934 5.93477 25.3576C3.35922 31.2781 2.20747 36.932 3.99044 41.0305C4.86143 43.0327 6.42892 44.6571 8.91468 45.7999C11.4288 46.9558 15.0048 47.6744 20 47.6744C24.9952 47.6744 28.5712 46.9558 31.0853 45.7999C33.5711 44.6571 35.1386 43.0327 36.0096 41.0305C37.7925 36.932 36.6408 31.2781 34.0652 25.3576C31.5142 19.4934 27.6745 13.6039 24.4549 9.16332C22.8481 6.94718 21.4023 5.10074 20.3592 3.80968C20.2335 3.65403 20.1136 3.50648 20 3.36735ZM18.6846 0.532578C18.6851 0.531997 18.6854 0.531598 20 1.16279C21.3146 0.531598 21.3149 0.531998 21.3154 0.532579L21.3236 0.542038L21.3476 0.569698L21.4385 0.675591C21.5179 0.768299 21.634 0.904761 21.7832 1.08206C22.0814 1.43665 22.5116 1.95471 23.0434 2.61292C24.1067 3.92906 25.5773 5.80718 27.2111 8.06052C30.4726 12.5589 34.4102 18.588 37.044 24.6424C39.6534 30.6405 41.0941 36.9053 38.9884 41.7457C37.915 44.213 35.9179 46.3131 32.7327 47.7775C29.5758 49.2288 25.3745 50 20 50C14.6255 50 10.4242 49.2288 7.26728 47.7775C4.08208 46.3131 2.08497 44.213 1.01163 41.7457C-1.09405 36.9053 0.346641 30.6405 2.95597 24.6424C5.58979 18.588 9.52744 12.5589 12.789 8.06052C14.4227 5.80718 15.8933 3.92906 16.9566 2.61292C17.4884 1.95471 17.9186 1.43665 18.2169 1.08206C18.366 0.904761 18.4821 0.768299 18.5615 0.675591L18.6525 0.569697L18.6764 0.542037L18.6846 0.532578Z" />
</svg>
