<svg width="74" height="74" viewBox="0 0 74 74" fill="#fff" xmlns="http://www.w3.org/2000/svg">
    <path fill-rule="evenodd" clip-rule="evenodd"
        d="M57.9556 15.5291L50.8868 22.5979C52.8911 24.6058 54.4452 27.0182 55.4478 29.6597L65.2025 27.0459L65.7201 28.9778L56.0641 31.5651C56.7833 34.2394 56.9544 37.0926 56.4831 39.9613L66.2378 42.5751L65.7201 44.5069L56.0609 41.9187C55.1178 45.4381 53.2926 48.4856 50.8868 50.8868L57.9556 57.9556L56.5413 59.3698L49.4004 52.2289C47.2114 54.0151 44.6593 55.3272 41.9196 56.0641L44.5069 65.7201L42.5751 66.2378L39.9622 56.4864C37.2471 56.9309 34.3961 56.8192 31.566 56.0609L28.9778 65.7201L27.0459 65.2025L29.6597 55.4478C26.9396 54.4216 24.5543 52.8469 22.5979 50.8868L15.5291 57.9555L14.1149 56.5413L21.2558 49.4004C19.4696 47.2114 18.1575 44.6593 17.4206 41.9196L7.76456 44.5069L7.24692 42.5751L16.9982 39.9622C16.5538 37.2471 16.6655 34.3961 17.4238 31.566L7.76457 28.9778L8.28221 27.0459L18.0369 29.6597C18.8164 27.5935 19.9124 25.7204 21.2534 24.0818L14.1149 16.9434L15.5292 15.5291L22.5979 22.5979C24.6058 20.5936 27.0183 19.0395 29.6597 18.0369L27.0459 8.28221L28.9778 7.76457L31.5651 17.4206C34.2395 16.7013 37.0926 16.5303 39.9613 17.0016L42.5751 7.24693L44.5069 7.76457L41.9187 17.4238C44.7488 18.1822 47.2738 19.511 49.4029 21.2534L56.5413 14.1149L57.9556 15.5291ZM32.0836 54.129C41.686 56.702 51.5561 51.0035 54.129 41.4011C56.702 31.7987 51.0035 21.9286 41.4011 19.3557C31.7987 16.7827 21.9286 22.4812 19.3557 32.0836C16.7827 41.686 22.4812 51.5561 32.0836 54.129Z" />
</svg>
