<svg viewBox="0 0 22 22" fill="none" xmlns="http://www.w3.org/2000/svg">
    <path fill-rule="evenodd" clip-rule="evenodd"
        d="M4.98021 5.58656H3.69981C2.30253 5.58656 1.16982 6.67967 1.16982 8.0281V17.0143C1.16982 18.3627 2.30253 19.4559 3.69981 19.4559H18.0365C19.4338 19.4559 20.5665 18.3627 20.5665 17.0143V8.0281C20.5665 6.67967 19.4338 5.58656 18.0365 5.58656H16.7555L15.84 4.24428C15.372 3.5581 14.5779 3.14502 13.7267 3.14502H8.00935C7.15829 3.14502 6.36425 3.55795 5.89624 4.24392L4.98021 5.58656ZM10.8681 16.5904C8.43349 16.5904 6.45981 14.6168 6.45981 12.1821C6.45981 9.74745 8.43349 7.77377 10.8681 7.77377C13.3028 7.77377 15.2765 9.74745 15.2765 12.1821C15.2765 14.6168 13.3028 16.5904 10.8681 16.5904ZM13.954 12.1821C13.954 13.8864 12.5724 15.2679 10.8681 15.2679C9.16389 15.2679 7.78231 13.8864 7.78231 12.1821C7.78231 10.4778 9.16389 9.09627 10.8681 9.09627C12.5724 9.09627 13.954 10.4778 13.954 12.1821Z"
        fill="white" />
</svg>
