<svg width="55" height="54" viewBox="0 0 55 54" fill="#fff" xmlns="http://www.w3.org/2000/svg">
    <path fill-rule="evenodd" clip-rule="evenodd"
        d="M2.20349 26.999C2.20349 13.1925 13.3959 2 27.2025 2C32.5946 2 37.5879 3.70709 41.6715 6.61029H28.2034C27.6511 6.61029 27.2034 7.05801 27.2034 7.61029C27.2034 8.16258 27.6511 8.61029 28.2034 8.61029H44.1381C45.5457 9.90736 46.8041 11.364 47.8845 12.9515H28.2034C27.6511 12.9515 27.2034 13.3992 27.2034 13.9515C27.2034 14.5038 27.6511 14.9515 28.2034 14.9515H49.1124C49.8692 16.3249 50.5006 17.7772 50.9912 19.2928H28.2034C27.6511 19.2928 27.2034 19.7405 27.2034 20.2928C27.2034 20.845 27.6511 21.2928 28.2034 21.2928H51.5474C51.8755 22.698 52.085 24.1487 52.1649 25.634H28.2034C27.6511 25.634 27.2034 26.0817 27.2034 26.634C27.2034 27.1863 27.6511 27.634 28.2034 27.634H52.1937C52.1566 29.1199 51.9899 30.5737 51.7044 31.9844C51.6599 31.9783 51.6145 31.9752 51.5683 31.9752H28.2034C27.6511 31.9752 27.2034 32.4229 27.2034 32.9752C27.2034 33.5275 27.6511 33.9752 28.2034 33.9752H51.2152C50.7759 35.49 50.1972 36.9455 49.4938 38.3269C49.4465 38.32 49.3981 38.3164 49.3489 38.3164H28.2034C27.6511 38.3164 27.2034 38.7642 27.2034 39.3164C27.2034 39.8687 27.6511 40.3164 28.2034 40.3164H48.3629C47.3609 41.9053 46.1848 43.3735 44.8614 44.6941C44.776 44.6704 44.6859 44.6577 44.5929 44.6577H28.2034C27.6511 44.6577 27.2034 45.1054 27.2034 45.6577C27.2034 46.2099 27.6511 46.6577 28.2034 46.6577H42.6474C38.3957 50.0027 33.0321 51.9981 27.2025 51.9981C13.3959 51.9981 2.20349 40.8056 2.20349 26.999ZM27.2025 0C12.2914 0 0.203491 12.0879 0.203491 26.999C0.203491 41.9102 12.2914 53.9981 27.2025 53.9981C42.1137 53.9981 54.2016 41.9102 54.2016 26.999C54.2016 12.0879 42.1137 0 27.2025 0Z" />
</svg>
